<svg id="b" data-name="Layer 2" xmlns="http://www.w3.org/2000/svg" viewBox="0 0 54 54" class="icon icon-logo icon-logo--rebrand">
  <g id="c" data-name="Surfaces">
    <g id="d" data-name="Utility Surface">
      <g id="e" data-name="Outline no shadow">
        <circle cx="27" cy="27" r="27" fill="#000b1d"></circle>
      </g>
    </g>
  </g>
  <g id="f" data-name="Outlined Mnemonics &amp; Logos">
    <g id="g" data-name="Pf">
      <g id="h" data-name="64 svg">
        <path d="M19.50484,14.96143c7.03027,0,10.98975,3.29321,10.98975,8.80664,0,6.43848-5.36572,9.02856-10.39795,9.02856h-3.4043v6.95654h-6.88232V14.96143h9.69482ZM16.69234,20.84497v6.06836h3.03418c2.10938,0,3.58984-.85107,3.58984-2.99731,0-1.96118-1.2583-3.07104-3.44141-3.07104h-3.18262Z" fill="#fff"></path>
        <path d="M34.16304,25.76611h-2.40527v-5.14331h2.40527c.11084-4.21826,2.88623-6.62354,7.25244-6.62354,1.10986,0,2.18311.11108,2.7749.33325l-.03662,4.77319c-.40723-.14795-.99902-.22192-1.51709-.22192-1.48047,0-1.92432.66602-1.99805,1.73901h3.51514v5.14331h-3.51514v13.98706h-6.47559v-13.98706Z" fill="#fff"></path>
      </g>
    </g>
  </g>
</svg>