<?xml version="1.0" encoding="UTF-8"?>
<svg version="1.1" xmlns="http://www.w3.org/2000/svg" width="512" height="512">
<path d="M0 0 C1.24929271 1.02169879 2.49921475 2.04262895 3.75 3.0625 C24.50502431 21.10606033 38.19654101 49.83002834 41 77 C43.19577196 110.76588376 36.6613103 143.50998428 14.0546875 169.67578125 C13.03761719 170.82626953 13.03761719 170.82626953 12 172 C11.46632813 172.65355469 10.93265625 173.30710937 10.3828125 173.98046875 C-8.59037618 197.20980516 -39.41607051 210.52630234 -68.7265625 213.53515625 C-102.45587213 216.31298758 -134.61730387 205.78011378 -160.50390625 184.12109375 C-186.17834299 161.79809863 -199.52357384 130.51774018 -202 97 C-204.07191081 66.87096361 -192.66230442 35.61538816 -173 13 C-172.30132812 12.16855469 -171.60265625 11.33710938 -170.8828125 10.48046875 C-150.74615486 -12.84509018 -120.93112559 -27.02209017 -90.38232422 -29.65209961 C-57.48554648 -31.83161639 -24.74609184 -22.17284138 0 0 Z " fill="#FF007E" transform="translate(471,164)"/>
<path d="M0 0 C0.99515625 0.83144531 1.9903125 1.66289062 3.015625 2.51953125 C28.53007853 24.53320241 41.55183558 55.86477456 44 89 C46.07191081 119.12903639 34.66230442 150.38461184 15 173 C13.95199219 174.24716797 13.95199219 174.24716797 12.8828125 175.51953125 C-7.25384514 198.84509018 -37.06887441 213.02209017 -67.61767578 215.65209961 C-99.12657314 217.73966487 -131.65003533 209.02540814 -155.74609375 188.01953125 C-156.86177734 187.01986328 -156.86177734 187.01986328 -158 186 C-159.24929271 184.97830121 -160.49921475 183.95737105 -161.75 182.9375 C-182.50502431 164.89393967 -196.19654101 136.16997166 -199 109 C-201.19577196 75.23411624 -194.6613103 42.49001572 -172.0546875 16.32421875 C-171.37664062 15.55722656 -170.69859375 14.79023438 -170 14 C-169.46632812 13.34644531 -168.93265625 12.69289062 -168.3828125 12.01953125 C-149.32905691 -11.30844519 -119.42789862 -23.54849308 -90.31640625 -27.5 C-57.92949163 -30.49532158 -24.99563133 -20.88723336 0 0 Z " fill="#005DE1" transform="translate(199,162)"/>
</svg>
