<?xml version="1.0" encoding="UTF-8"?>
<svg version="1.1" xmlns="http://www.w3.org/2000/svg" width="512" height="512">
<path d="M0 0 C1.01790619 0.00215515 2.03581238 0.0043103 3.08456421 0.00653076 C17.69363523 0.05620146 32.02575853 0.30709809 46.375 3.3125 C47.34985352 3.51117676 48.32470703 3.70985352 49.32910156 3.91455078 C108.89482498 16.37463238 165.24866419 48.2648637 202.375 97.3125 C202.79023926 97.85132812 203.20547852 98.39015625 203.63330078 98.9453125 C228.13415115 130.81517547 244.62642134 167.36831241 252.6875 206.75 C252.83485596 207.46889404 252.98221191 208.18778809 253.1340332 208.9284668 C256.10789088 224.57475609 256.74800362 240.04818046 256.6875 255.9375 C256.68534485 256.95540619 256.6831897 257.97331238 256.68096924 259.02206421 C256.63129854 273.63113523 256.38040191 287.96325853 253.375 302.3125 C253.07698486 303.77478027 253.07698486 303.77478027 252.77294922 305.26660156 C242.52138226 354.27446698 220.18217348 398.27864199 185.375 434.3125 C184.77606934 434.93334473 184.17713867 435.55418945 183.56005859 436.19384766 C175.89623497 444.09500259 168.15501606 451.64016955 159.375 458.3125 C158.83472168 458.72918945 158.29444336 459.14587891 157.73779297 459.57519531 C125.8687531 484.07334707 89.31685217 500.56439938 49.9375 508.625 C49.21860596 508.77235596 48.49971191 508.91971191 47.7590332 509.0715332 C33.08339502 511.86090125 18.55831162 512.66142619 3.64770508 512.62817383 C0.70811513 512.6250221 -2.2304558 512.64854926 -5.16992188 512.67382812 C-18.54306192 512.71848737 -31.43916711 511.51301542 -44.625 509.3125 C-46.33055054 509.03031616 -46.33055054 509.03031616 -48.07055664 508.74243164 C-50.6662622 508.27617402 -53.23774939 507.7574418 -55.8125 507.1875 C-57.20142456 506.88054199 -57.20142456 506.88054199 -58.6184082 506.56738281 C-103.71300222 496.08183329 -144.40193368 473.34639441 -177.625 441.3125 C-178.58889648 440.38945068 -178.58889648 440.38945068 -179.57226562 439.44775391 C-188.74836539 430.62136647 -197.09816554 421.58141996 -204.625 411.3125 C-205.26211914 410.45857666 -205.26211914 410.45857666 -205.91210938 409.58740234 C-212.42768015 400.84658179 -218.26088547 391.80163672 -223.625 382.3125 C-224.0271875 381.60528809 -224.429375 380.89807617 -224.84375 380.16943359 C-237.8691741 357.03404164 -246.61801461 331.86287591 -251.9375 305.875 C-252.08485596 305.15610596 -252.23221191 304.43721191 -252.3840332 303.6965332 C-255.35789088 288.05024391 -255.99800362 272.57681954 -255.9375 256.6875 C-255.93534485 255.66959381 -255.9331897 254.65168762 -255.93096924 253.60293579 C-255.88129854 238.99386477 -255.63040191 224.66174147 -252.625 210.3125 C-252.42632324 209.33764648 -252.22764648 208.36279297 -252.02294922 207.35839844 C-241.90232806 158.9765226 -219.9858123 114.98821731 -185.625 79.3125 C-184.99287598 78.65314453 -184.36075195 77.99378906 -183.70947266 77.31445312 C-174.56502521 67.82619695 -165.26765991 59.0862956 -154.625 51.3125 C-153.47394983 50.45443848 -152.32290823 49.59636549 -151.171875 48.73828125 C-142.98224019 42.70072604 -134.47961724 37.31792698 -125.625 32.3125 C-124.91778809 31.9103125 -124.21057617 31.508125 -123.48193359 31.09375 C-100.34654164 18.0683259 -75.17537591 9.31948539 -49.1875 4 C-48.46860596 3.85264404 -47.74971191 3.70528809 -47.0090332 3.5534668 C-31.36274391 0.57960912 -15.88931954 -0.06050362 0 0 Z " fill="#FF0000" transform="translate(255.625,-0.3125)"/>
<path d="M0 0 C1.28020334 0.00017939 1.28020334 0.00017939 2.58626938 0.0003624 C39.57989054 0.00689222 76.55293949 0.52823367 113.4375 3.625 C114.45670029 3.70809921 114.45670029 3.70809921 115.49649048 3.7928772 C131.70879037 5.1568438 146.47898929 8.79011568 157.8125 21.1875 C162.43814328 27.35839093 165.01101523 33.73975087 166.8125 41.1875 C167.08513672 42.19296875 167.08513672 42.19296875 167.36328125 43.21875 C169.13306189 50.24383347 169.82026288 57.47244545 170.55371094 64.66455078 C170.72698069 66.35376737 170.90738289 68.0422668 171.09472656 69.72998047 C174.586976 101.74621301 173.37127484 134.34979436 171.08154297 166.41552734 C170.91364449 168.76945798 170.75262918 171.1239019 170.60205078 173.47900391 C169.41513944 191.89878072 166.96057495 210.6022597 153.125 224 C141.35463438 234.00304346 127.65152966 235.42109553 112.83300781 236.51025391 C110.55969522 236.67845865 108.28776072 236.85965099 106.015625 237.04296875 C72.17044875 239.67509251 38.28310113 240.54447698 4.34685516 240.44524765 C1.4423566 240.43734312 -1.46213148 240.43286734 -4.36663818 240.42910767 C-32.66499827 240.3865131 -60.950849 240.26139569 -89.1875 238.1875 C-89.94671753 238.1318689 -90.70593506 238.07623779 -91.48815918 238.0189209 C-137.40100583 234.58634385 -137.40100583 234.58634385 -151.125 220.5 C-178.97213794 187.11364837 -169.23343212 110.41871319 -165.69018555 70.91937256 C-165.60679932 70.01785461 -165.52341309 69.11633667 -165.4375 68.1875 C-165.35927002 67.32288147 -165.28104004 66.45826294 -165.20043945 65.56744385 C-163.44922632 46.90298553 -160.79951906 28.38157643 -146.1875 15.1875 C-136.64764482 8.52736174 -127.64755487 6.02325745 -116.25 4.6875 C-115.16662354 4.56004395 -114.08324707 4.43258789 -112.96704102 4.30126953 C-104.20148799 3.32010169 -95.42584528 2.62568425 -86.625 2.0625 C-84.88585327 1.94938477 -84.88585327 1.94938477 -83.11157227 1.83398438 C-55.43317386 0.20249299 -27.71743255 -0.01731112 0 0 Z " fill="#FFFEFE" transform="translate(253.1875,135.8125)"/>
<path d="M0 0 C4.2904122 1.4301374 7.16412963 2.50035485 10.88671875 4.73046875 C11.81097656 5.27832031 12.73523438 5.82617188 13.6875 6.390625 C14.6775 6.98359375 15.6675 7.5765625 16.6875 8.1875 C25.55145951 13.43173681 34.47902627 18.53081404 43.5 23.5 C55.3123715 30.01670037 66.98039794 36.75827788 78.60742188 43.59912109 C81.72449104 45.4241969 84.85881026 47.2168108 88 49 C88 49.66 88 50.32 88 51 C74.84927156 58.52822061 61.69877824 66.05623464 48.5 73.5 C37.30849116 79.81213479 26.15272438 86.18609983 15 92.56640625 C13.95199219 93.16469238 12.90398437 93.76297852 11.82421875 94.37939453 C10.11338534 95.36111239 8.40645337 96.34973244 6.70703125 97.35107422 C2.20118643 100 2.20118643 100 0 100 C0 67 0 34 0 0 Z " fill="#FF0202" transform="translate(221,206)"/>
</svg>
