<?xml version="1.0" encoding="UTF-8"?>
<svg version="1.1" xmlns="http://www.w3.org/2000/svg" width="512" height="512">
<path d="M0 0 C2.61312557 2.32430242 5.16690506 4.70084345 7.70947266 7.10253906 C9.77900301 9.04827849 11.87503895 10.8838999 14.06884766 12.68457031 C17.89332886 15.9312522 21.03026536 19.66845124 24.25634766 23.49707031 C25.52865234 24.955 25.52865234 24.955 26.82666016 26.44238281 C68.08857423 73.92633155 84.19036429 134.59124442 80.11639404 196.62823486 C76.35130835 244.14364546 54.26837793 291.41950965 21.65087891 325.95019531 C19.70513948 328.01972566 17.86951807 330.11576161 16.06884766 332.30957031 C12.82216577 336.13405152 9.08496673 339.27098801 5.25634766 342.49707031 C4.28439453 343.34527344 3.31244141 344.19347656 2.31103516 345.06738281 C-45.17291358 386.32929689 -105.83782645 402.43108695 -167.87481689 398.3571167 C-215.3902275 394.59203101 -262.66609168 372.50910058 -297.19677734 339.89160156 C-299.2663077 337.94586214 -301.36234364 336.11024073 -303.55615234 334.30957031 C-307.38063355 331.06288842 -310.51757005 327.32568938 -313.74365234 323.49707031 C-314.59185547 322.52511719 -315.44005859 321.55316406 -316.31396484 320.55175781 C-357.57587892 273.06780908 -373.67766898 212.40289621 -369.60369873 150.36590576 C-365.83861304 102.85049516 -343.75568262 55.57463097 -311.13818359 21.04394531 C-309.19244417 18.97441496 -307.35682276 16.87837901 -305.55615234 14.68457031 C-302.30947045 10.8600891 -298.57227141 7.72315261 -294.74365234 4.49707031 C-293.77169922 3.64886719 -292.79974609 2.80066406 -291.79833984 1.92675781 C-222.88707505 -57.95475504 -120.39017454 -68.974567 0 0 Z " fill="#1976D2" transform="translate(400.74365234375,82.5029296875)"/>
<path d="M0 0 C1.76938839 -0.00863116 3.53877678 -0.01726135 5.30816519 -0.02588761 C6.89109575 -0.0336132 8.47402624 -0.04135486 10.05695665 -0.04911125 C14.44166897 -0.0705719 18.82638239 -0.0917418 23.21109867 -0.11237812 C31.44498754 -0.15139744 39.67876103 -0.19377311 47.91252708 -0.25404167 C51.18620063 -0.27483455 54.45980205 -0.28279238 57.73353577 -0.28633118 C59.3219812 -0.29086587 60.91041793 -0.30126216 62.49879456 -0.31672668 C79.52936201 -0.47389884 98.07580324 -0.02364134 111.3359375 12.13671875 C118.78851905 20.48151077 122.40000581 29.2561646 122.375 40.375 C122.37338867 41.12305908 122.37177734 41.87111816 122.37011719 42.6418457 C122.2400755 48.50328367 121.18194197 53.00292962 118 58 C117.360625 59.0725 116.72125 60.145 116.0625 61.25 C113.16089762 65.11880318 110.0015096 68.22104809 106.1875 71.1875 C105.465625 71.785625 104.74375 72.38375 104 73 C104 73.66 104 74.32 104 75 C104.78503906 75.35191406 105.57007813 75.70382813 106.37890625 76.06640625 C116.74503328 80.93785 123.38539407 86.35356834 128 97 C132.60956864 110.82870592 130.28955413 123.2817423 124 136 C118.14395244 145.84373709 109.04515108 152.97199321 98 156 C85.97735183 157.99351897 74.03422288 158.28573745 61.875 158.23046875 C60.10807326 158.2292728 58.34114588 158.22882466 56.57421875 158.2290802 C52.91369516 158.22753312 49.25327185 158.21937135 45.59277344 158.20581055 C40.89296867 158.18862041 36.19327127 158.18500286 31.49343872 158.18575573 C27.8647763 158.18548488 24.23613751 158.18002078 20.60748291 158.17275429 C18.87225523 158.16956961 17.13702488 158.16760068 15.40179443 158.16686058 C12.99698218 158.16470627 10.59228726 158.15598799 8.1875 158.14526367 C7.46974396 158.14571686 6.75198792 158.14617004 6.01248169 158.14663696 C1.11449576 158.11449576 1.11449576 158.11449576 0 157 C-0.09676414 154.97505378 -0.12186986 152.94667458 -0.12025452 150.91941833 C-0.12110894 150.27744619 -0.12196337 149.63547404 -0.12284368 148.9740482 C-0.12450021 146.80745946 -0.11897433 144.64094693 -0.11352539 142.47436523 C-0.11324353 140.92743939 -0.11340123 139.38051341 -0.1139679 137.83358765 C-0.11425592 133.62095968 -0.10835849 129.40835994 -0.10139394 125.19573855 C-0.09516112 120.79814212 -0.09455666 116.40054511 -0.09336853 112.00294495 C-0.090255 103.66959487 -0.08204132 95.33625785 -0.07201904 87.00291353 C-0.06085857 77.51818746 -0.05534762 68.03346078 -0.05032361 58.54872978 C-0.03985873 39.03247911 -0.02225887 19.5162406 0 0 Z " fill="#FDFDFE" transform="translate(131,177)"/>
<path d="M0 0 C1.09771729 0.00572021 2.19543457 0.01144043 3.32641602 0.01733398 C16.69236869 0.30976035 27.4511185 3.71854546 37.8125 12.5 C38.51890625 13.09554687 39.2253125 13.69109375 39.953125 14.3046875 C50.18805209 23.71925784 54.35825871 35.05075772 56.8125 48.5 C56.8125 55.43 56.8125 62.36 56.8125 69.5 C30.7425 69.5 4.6725 69.5 -22.1875 69.5 C-20.45237959 79.04316226 -19.44375009 84.55518284 -12.625 90.875 C-7.77723006 94.10684662 -4.21377917 94.83945651 1.625 94.8125 C2.31142578 94.82861328 2.99785156 94.84472656 3.70507812 94.86132812 C8.79976705 94.86614808 12.2367243 93.72316285 16.8125 91.5 C17.8025 91.17 18.7925 90.84 19.8125 90.5 C20.99641223 88.12374655 20.99641223 88.12374655 21.8125 85.5 C22.3075 84.015 22.3075 84.015 22.8125 82.5 C33.3725 82.5 43.9325 82.5 54.8125 82.5 C53.0756238 94.65813339 47.53186287 103.92385659 37.9375 111.5625 C31.37654948 116.22211384 24.50778172 118.36801351 16.8125 120.5 C16.16837158 120.67958252 15.52424316 120.85916504 14.8605957 121.04418945 C-0.60902304 124.48700483 -19.01361111 120.87509003 -32.1875 112.5 C-44.74862693 103.05246686 -51.73567464 90.71475726 -54.5 75.25 C-56.91763702 55.72112621 -55.10515311 35.85553287 -43.03515625 19.6015625 C-31.50236733 5.95660965 -17.58106447 -0.10663371 0 0 Z " fill="#FCFDFE" transform="translate(324.1875,213.5)"/>
<path d="M0 0 C6.001875 -0.061875 12.00375 -0.12375 18.1875 -0.1875 C20.05301514 -0.21481201 21.91853027 -0.24212402 23.84057617 -0.27026367 C48.45678622 -0.48354724 48.45678622 -0.48354724 57.51171875 8.18359375 C62.61966363 14.41769971 61.73216026 22.36241248 61 30 C59.36431183 34.80055459 56.3534347 37.01688954 52 39.375 C45.83586894 42.23336722 39.76950271 42.13525601 33.10546875 42.09765625 C32.15811356 42.0962413 31.21075836 42.09482635 30.23469543 42.09336853 C27.21893105 42.08778611 24.20324182 42.07523682 21.1875 42.0625 C19.13867295 42.05748273 17.08984473 42.05292022 15.04101562 42.04882812 C10.02729174 42.03867478 5.01372967 42.01909588 0 42 C0 28.14 0 14.28 0 0 Z " fill="#1B77D2" transform="translate(167,266)"/>
<path d="M0 0 C4.49828743 -0.02500545 8.99653638 -0.04300224 13.49487305 -0.05493164 C15.02027086 -0.05991292 16.54566401 -0.06670038 18.07104492 -0.07543945 C45.12671233 -0.22639001 45.12671233 -0.22639001 52 6 C55.9437453 10.39062862 56.58322231 14.85660928 56.3203125 20.640625 C55.53060018 26.45753039 52.48343809 30.39375632 48 34 C41.99854468 36.71036531 36.36117287 37.43107764 29.84375 37.328125 C29.01540649 37.32625183 28.18706299 37.32437866 27.33361816 37.32244873 C25.6025788 37.31578302 23.87155307 37.30197968 22.140625 37.28125 C19.47902588 37.24975179 16.81801811 37.24023793 14.15625 37.234375 C12.4687427 37.22521724 10.78124145 37.21484542 9.09375 37.203125 C8.29594116 37.19887512 7.49813232 37.19462524 6.67614746 37.19024658 C1.11725222 37.11725222 1.11725222 37.11725222 0 36 C-0.08855161 33.3337397 -0.11524673 30.69352886 -0.09765625 28.02734375 C-0.0962413 27.22970108 -0.09482635 26.43205841 -0.09336853 25.61024475 C-0.08775316 23.05262565 -0.07519812 20.49509282 -0.0625 17.9375 C-0.05748698 16.20768355 -0.05292373 14.47786574 -0.04882812 12.74804688 C-0.03777875 8.49866447 -0.02050386 4.24934688 0 0 Z " fill="#1E79D3" transform="translate(167,203)"/>
<path d="M0 0 C1.73189575 -0.00945648 1.73189575 -0.00945648 3.4987793 -0.019104 C4.75086182 -0.01505554 6.00294434 -0.01100708 7.29296875 -0.00683594 C8.57276611 -0.00874939 9.85256348 -0.01066284 11.17114258 -0.01263428 C13.88139668 -0.01558475 16.59151902 -0.01129049 19.30175781 -0.00195312 C22.77896106 0.00944154 26.25585557 0.00288163 29.73304749 -0.00909805 C33.04471279 -0.01805519 36.35629466 -0.01178729 39.66796875 -0.00683594 C41.54609253 -0.01290863 41.54609253 -0.01290863 43.4621582 -0.019104 C44.61675537 -0.01279968 45.77135254 -0.00649536 46.9609375 0 C47.98082764 0.00159119 49.00071777 0.00318237 50.05151367 0.00482178 C52.48046875 0.25878906 52.48046875 0.25878906 54.48046875 2.25878906 C54.74609375 5.22753906 54.74609375 5.22753906 54.73046875 8.75878906 C54.73820312 10.50675781 54.73820312 10.50675781 54.74609375 12.29003906 C54.48046875 15.25878906 54.48046875 15.25878906 52.48046875 17.25878906 C50.05151367 17.51275635 50.05151367 17.51275635 46.9609375 17.51757812 C45.22904175 17.52703461 45.22904175 17.52703461 43.4621582 17.53668213 C42.21007568 17.53263367 40.95799316 17.52858521 39.66796875 17.52441406 C38.38817139 17.52632751 37.10837402 17.52824097 35.78979492 17.5302124 C33.07954082 17.53316288 30.36941848 17.52886862 27.65917969 17.51953125 C24.18197644 17.50813659 20.70508193 17.51469649 17.22789001 17.52667618 C13.91622471 17.53563331 10.60464284 17.52936542 7.29296875 17.52441406 C5.41484497 17.53048676 5.41484497 17.53048676 3.4987793 17.53668213 C2.34418213 17.53037781 1.18958496 17.52407349 0 17.51757812 C-1.01989014 17.51598694 -2.03978027 17.51439575 -3.09057617 17.51275635 C-5.51953125 17.25878906 -5.51953125 17.25878906 -7.51953125 15.25878906 C-7.78515625 12.29003906 -7.78515625 12.29003906 -7.76953125 8.75878906 C-7.7746875 7.59347656 -7.77984375 6.42816406 -7.78515625 5.22753906 C-7.30321084 -0.15890968 -4.74359206 0.00740074 0 0 Z " fill="#FCFDFE" transform="translate(301.51953125,181.7412109375)"/>
<path d="M0 0 C5.50008111 3.08669099 9.0432151 6.9478911 12.0625 12.4375 C12.6875 14.9375 12.6875 14.9375 12.6875 21.9375 C-2.8225 21.9375 -18.3325 21.9375 -34.3125 21.9375 C-33.21555177 12.06496592 -31.36705946 8.36828843 -24.25 2.0625 C-16.79603064 -3.32973315 -8.34676499 -3.83295552 0 0 Z " fill="#1C77D2" transform="translate(336.3125,239.0625)"/>
</svg>
